# xmcd
#
# Track frame offsets:
#	150
#	14552
#	43532
#	64527
#	92920
#	127065
#	144340
#	178800
#	203545
#	234327
#
# Disc length: 3379 seconds
#
# Revision: 3
# Processed by: cddbd v1.5.2PL0 Copyright (c) Steve Scherf et al.
# Submitted via: EasyCDDAExtractor 11.0.3.1
#
DISCID=850d310a
DTITLE=Various Artist - Traditional Gospel Vol.1
DYEAR=2000
DGENRE=Gospel
TTITLE0=Savannah Community Choir - Do Lord
TTITLE1=Rev. Cleophus Robinson - If the Lord Be With Me
TTITLE2=Rev. James Cleveland and The L.A. Gospel Messengers - Life More Abundant
TTITLE2=ly
TTITLE3=Rev. Clay Evans - I'm Going Through
TTITLE4=Willie Neal and The Gospel Keynotes - One More Time
TTITLE5=Sensational Nightingales - Pass My Not 
TTITLE6=Mississippi Mass Choir - I Need Him
TTITLE7=Bishop Jeff Banks and The Revival Temple Community Choir - I Can Depend 
TTITLE7=On Him
TTITLE8=Ruby Terry - You Made A Way
TTITLE9=Dorothy Norwood - It Is Finished
EXTD=Savory - Malaco records\nSt. Clair Entertainment
EXTT0=
EXTT1=
EXTT2=
EXTT3=
EXTT4=
EXTT5=
EXTT6=
EXTT7=
EXTT8=
EXTT9=
PLAYORDER=
